<?xml version="1.0" standalone="no"?>
<!DOCTYPE svg PUBLIC "-//W3C//DTD SVG 20010904//EN"
 "http://www.w3.org/TR/2001/REC-SVG-20010904/DTD/svg10.dtd">
<svg version="1.0" xmlns="http://www.w3.org/2000/svg"
 width="1024.000000pt" height="1024.000000pt" viewBox="0 0 1024.000000 1024.000000"
 preserveAspectRatio="xMidYMid meet">


<rect width="256" height="256" fill="#FFC107"/>

<g transform="translate(0.000000,1024.000000) scale(0.100000,-0.100000)" fill="#0A4D9C" stroke="none">
<path d="M0 5120 l0 -5120 5120 0 5120 0 0 5120 0 5120 -5120 0 -5120 0 0
-5120z m4910 3265 c207 -31 429 -122 605 -246 111 -79 301 -267 377 -374 66
-93 120 -193 112 -206 -3 -5 -22 -9 -42 -9 -30 0 -62 17 -172 92 -247 167
-411 227 -590 215 -195 -14 -411 -100 -518 -205 -84 -82 -116 -153 -120 -264
-4 -92 12 -160 65 -273 32 -70 30 -97 -11 -133 -96 -84 -862 -492 -925 -492
-25 0 -43 16 -123 108 -106 121 -165 160 -252 169 -66 7 -108 -7 -203 -64
-135 -82 -182 -162 -168 -288 7 -66 7 -66 -28 -98 -18 -18 -60 -45 -93 -61
-32 -16 -99 -56 -149 -89 -147 -98 -195 -113 -255 -82 -33 17 -238 314 -296
427 -18 37 -85 153 -148 258 -63 105 -117 204 -121 219 -8 39 15 90 56 125 19
15 90 60 159 100 69 40 152 89 184 109 80 49 121 49 201 1 34 -21 78 -39 102
-42 37 -4 52 1 115 38 40 24 87 51 103 61 69 41 165 171 165 223 0 28 67 92
132 126 35 18 207 111 383 205 509 274 654 343 844 400 74 22 200 50 266 58
74 10 258 6 345 -8z m-199 -1715 c55 -15 86 -57 138 -186 149 -367 368 -809
524 -1059 158 -254 415 -641 706 -1064 198 -288 330 -504 646 -1056 281 -491
337 -586 463 -784 58 -91 111 -179 118 -198 18 -42 18 -117 0 -152 -34 -66
-219 -199 -459 -329 -157 -86 -246 -116 -321 -110 -95 8 -138 55 -246 268
-127 250 -239 455 -323 590 -88 142 -378 621 -429 710 -109 190 -479 914 -578
1130 -206 453 -501 971 -869 1524 -127 190 -151 233 -151 264 0 48 28 93 82
129 139 95 517 295 598 317 68 18 59 18 101 6z"/>
</g>
</svg>
