<?xml version="1.0" encoding="UTF-8"?>
<svg version="1.1" xmlns="http://www.w3.org/2000/svg" width="164" height="164">
<path d="M0 0 C54.12 0 108.24 0 164 0 C164 54.12 164 108.24 164 164 C109.88 164 55.76 164 0 164 C0 109.88 0 55.76 0 0 Z " fill="#ED1C24" transform="translate(0,0)"/>
<path d="M0 0 C54.12 0 108.24 0 164 0 C164 54.12 164 108.24 164 164 C109.88 164 55.76 164 0 164 C0 109.88 0 55.76 0 0 Z M31 24 C29.80117188 25.03060547 29.80117188 25.03060547 28.578125 26.08203125 C14.06830682 39.56615538 6.11640516 58.40091427 4.71484375 77.984375 C3.9681484 99.72856736 11.25437105 118.65520092 25.49609375 134.8359375 C39.69347425 149.87815487 58.8522017 158.62295568 79.53320312 159.4050293 C99.1644638 159.68469486 118.34932801 153.35390818 133 140 C133.81855469 139.27296875 134.63710937 138.5459375 135.48046875 137.796875 C150.26290036 123.9313567 158.64140441 104.65994375 159.4050293 84.46679688 C159.68456297 64.84479402 153.36081877 45.6400461 140 31 C139.31164062 30.24332031 138.62328125 29.48664062 137.9140625 28.70703125 C123.57890226 13.69283711 104.79918641 5.39684426 84.01953125 4.65039062 C63.96471935 4.39825082 46.1233572 10.97710907 31 24 Z " fill="#FFFFFF" transform="translate(0,0)"/>
<path d="M0 0 C-0.32613281 0.61746094 -0.65226562 1.23492187 -0.98828125 1.87109375 C-7.15010571 13.81303672 -10.22389526 24.72233714 -7.30859375 38.1953125 C-5.48446547 43.67532967 -2.8801069 48.02640737 0.828125 52.44140625 C2 54 2 54 2 56 C2.56074219 56.268125 3.12148437 56.53625 3.69921875 56.8125 C7.01688684 58.52484482 10.12061712 60.56001089 13.26953125 62.5625 C19.27295361 65.72310004 24.81444387 66.28254754 31.4375 66.125 C32.16904297 66.11597656 32.90058594 66.10695313 33.65429688 66.09765625 C35.43634298 66.07436153 37.21821759 66.0385019 39 66 C36.83307663 70.33384673 28.49192208 71.81712095 24.00048828 73.34863281 C5.80257101 79.2739493 -13.55231997 76.50340168 -30.4375 68.1875 C-36.48031106 65.06193302 -41.95227241 61.5968626 -47 57 C-47.75667969 56.32324219 -48.51335938 55.64648438 -49.29296875 54.94921875 C-56.65433032 48.0070972 -63.20575426 40.23266256 -64.203125 29.89453125 C-64.44737523 19.04575026 -60.49506752 8.95014557 -53.11328125 0.95703125 C-36.74489517 -14.12503765 -17.42356457 -12.30096919 0 0 Z " fill="#B5E61D" transform="translate(79,81)"/>
<path d="M0 0 C8.1831695 7.55730568 12.85642785 17.1684762 13.3125 28.3125 C13.01033575 38.09926429 9.60217683 47.65951522 3 55 C-1.33179615 55 -1.90913949 54.64179175 -5.1875 52.1875 C-14.61383571 45.73549352 -23.82398457 45.0151828 -35 46 C-41.83654785 47.47930192 -47.10916801 50.34948831 -52.44140625 54.828125 C-54 56 -54 56 -56 56 C-56.268125 56.56074219 -56.53625 57.12148437 -56.8125 57.69921875 C-58.08437947 60.16348523 -59.52215688 62.46642405 -61 64.8125 C-65.11806575 71.6659233 -66.32338017 78.14764882 -67 86 C-68.82675041 83.25987438 -69.64237877 81.35239828 -70.5625 78.25 C-70.81128906 77.43015625 -71.06007813 76.6103125 -71.31640625 75.765625 C-76.46082047 54.95279491 -71.76948956 35.07031035 -61 17 C-58.8811342 13.76048963 -56.60459019 10.86005106 -54 8 C-53.32324219 7.24332031 -52.64648438 6.48664062 -51.94921875 5.70703125 C-36.4630712 -10.71433657 -18.56145803 -13.8197074 0 0 Z " fill="#00A2E8" transform="translate(80,24)"/>
<path d="M0 0 C1.23228834 1.01321486 2.43893959 2.05804189 3.625 3.125 C4.88957031 4.23488281 4.88957031 4.23488281 6.1796875 5.3671875 C13.86809112 12.52074565 17.81516151 19.73071259 18.828125 30.23046875 C19.07237523 41.07924974 15.12006752 51.17485443 7.73828125 59.16796875 C-0.32956868 66.60180296 -9.9168891 70.66511101 -20.9453125 70.37890625 C-29.73971926 69.4598766 -37.36982488 66.7974168 -43.375 60.125 C-42.07287309 57.40673507 -40.61876229 54.93582433 -38.9375 52.4375 C-32.76643702 42.45060221 -31.58796344 31.38373393 -34.06640625 19.9296875 C-35.89053453 14.44967033 -38.4948931 10.09859263 -42.203125 5.68359375 C-43.375 4.125 -43.375 4.125 -43.375 2.125 C-43.93574219 1.856875 -44.49648437 1.58875 -45.07421875 1.3125 C-47.53848523 0.04062053 -49.84142405 -1.39715688 -52.1875 -2.875 C-59.0409233 -6.99306575 -65.52264882 -8.19838017 -73.375 -8.875 C-70.63487438 -10.70175041 -68.72739828 -11.51737877 -65.625 -12.4375 C-64.80515625 -12.68628906 -63.9853125 -12.93507813 -63.140625 -13.19140625 C-40.92086226 -18.68357924 -18.46411654 -13.05094181 0 0 Z " fill="#FFF200" transform="translate(127.375,21.875)"/>
<path d="M0 0 C17.61868187 13.78278267 29.21721167 31.88144404 32.1875 54.25 C33.96365845 74.48786886 28.98549475 93.72167374 16.8125 110.125 C15.63046711 111.52267403 14.42059525 112.89716203 13.1875 114.25 C12.09695312 115.47783203 12.09695312 115.47783203 10.984375 116.73046875 C-2.8811433 131.51290036 -22.15255625 139.89140441 -42.34570312 140.6550293 C-61.9769638 140.93469486 -81.16182801 134.60390818 -95.8125 121.25 C-96.63105469 120.52296875 -97.44960937 119.7959375 -98.29296875 119.046875 C-113.24232941 105.02478179 -121.4653474 85.6788175 -122.16650391 65.26074219 C-122.3760421 45.19380543 -115.84965846 27.38992595 -102.8125 12.25 C-102.12542969 11.45078125 -101.43835938 10.6515625 -100.73046875 9.828125 C-74.83204407 -18.04030972 -30.89100743 -21.39960259 0 0 Z M-72.8125 -6.75 C-72.8125 -6.42 -72.8125 -6.09 -72.8125 -5.75 C-71.61367187 -5.63785156 -71.61367187 -5.63785156 -70.390625 -5.5234375 C-60.76981711 -4.37165064 -51.7681864 -1.81107558 -44.8125 5.25 C-44.1525 5.25 -43.4925 5.25 -42.8125 5.25 C-42.544375 5.81074219 -42.27625 6.37148438 -42 6.94921875 C-40.28765518 10.26688684 -38.25248911 13.37061712 -36.25 16.51953125 C-31.55118106 25.44473352 -31.30329238 36.31295186 -33.7578125 45.96875 C-35.92617853 51.91470968 -38.32614344 56.76364344 -42.8125 61.25 C-41.0735726 65.67636065 -38.19181013 68.1614897 -33.8828125 70.1328125 C-22.3242295 74.62539382 -12.30226055 74.07655369 -0.8125 69.25 C9.35779498 63.26301563 15.58806833 53.91477223 18.9375 42.75 C19.02 41.925 19.1025 41.1 19.1875 40.25 C19.25066406 39.6415625 19.31382812 39.033125 19.37890625 38.40625 C19.86550823 29.74159541 17.60055504 20.51612803 11.875 13.875 C10.65876328 12.65365304 9.42995363 11.44466695 8.1875 10.25 C7.68734375 9.66992188 7.1871875 9.08984375 6.671875 8.4921875 C-3.21093858 -2.63845608 -21.24419991 -10.30917911 -35.8125 -11.75 C-48.86464471 -12.4809201 -60.37446712 -11.03897686 -72.8125 -6.75 Z M-94.8125 7.25 C-95.60011719 7.95511719 -96.38773438 8.66023438 -97.19921875 9.38671875 C-111.0954185 22.5279467 -119.60173322 41.579388 -120.2355957 60.72290039 C-120.30672933 71.35074609 -118.27966718 81.19521518 -114.8125 91.25 C-114.4825 91.25 -114.1525 91.25 -113.8125 91.25 C-113.73773438 90.45078125 -113.66296875 89.6515625 -113.5859375 88.828125 C-112.43415064 79.20731711 -109.87357558 70.2056864 -102.8125 63.25 C-102.8125 62.59 -102.8125 61.93 -102.8125 61.25 C-101.97138672 60.8478125 -101.97138672 60.8478125 -101.11328125 60.4375 C-97.79561316 58.72515518 -94.69188288 56.68998911 -91.54296875 54.6875 C-82.80563633 50.08758823 -72.14864786 49.89004631 -62.609375 51.9375 C-57.11165682 53.78031056 -52.82770358 56.36169687 -48.46875 60.17578125 C-47.9221875 60.53027344 -47.375625 60.88476562 -46.8125 61.25 C-41.48511898 59.47420633 -39.34973494 54.02456032 -36.8125 49.25 C-32.27750411 37.68339028 -33.02099365 27.65632926 -37.8125 16.25 C-43.79948437 6.07970502 -53.14772777 -0.15056833 -64.3125 -3.5 C-77.32378723 -4.80112872 -85.10039555 -1.48324668 -94.8125 7.25 Z M20.1875 27.25 C20.23390625 28.27738281 20.2803125 29.30476563 20.328125 30.36328125 C20.70454618 42.23635238 19.24188749 51.30653371 11.359375 60.69140625 C9.98717963 62.19142585 9.98717963 62.19142585 10.1875 64.25 C9.62675781 64.518125 9.06601563 64.78625 8.48828125 65.0625 C5.17061316 66.77484482 2.06688288 68.81001089 -1.08203125 70.8125 C-6.76793885 73.80593919 -12.3323371 74.61605904 -18.6875 74.5625 C-19.74348389 74.55404053 -19.74348389 74.55404053 -20.82080078 74.54541016 C-30.82066388 74.31242603 -37.53735948 70.58824305 -45.8125 65.25 C-51.82879931 73.13544084 -55.59061534 81.70569343 -55.15625 91.8046875 C-53.53020685 103.37176721 -49.06647892 112.25204278 -39.9375 119.5625 C-34.60613515 123.28927931 -28.36161334 126.59508867 -21.8125 127.25 C-21.2040625 127.31316406 -20.595625 127.37632812 -19.96875 127.44140625 C-11.30409541 127.92800823 -2.07862803 125.66305504 4.5625 119.9375 C5.78384162 118.72125793 6.99288622 117.49250475 8.1875 116.25 C9.04021484 115.51716797 9.04021484 115.51716797 9.91015625 114.76953125 C21.70636032 104.3168584 28.20864167 87.59105021 30.1875 72.25 C31.09434626 57.17553925 29.50124782 41.80194449 22.1875 28.25 C21.1975 27.755 21.1975 27.755 20.1875 27.25 Z M-104.125 67.125 C-110.34387166 76.0214414 -113.31447741 85.67370898 -111.421875 96.48046875 C-109.5476463 103.26854063 -105.45504959 108.08709458 -100.8125 113.25 C-100.10738281 114.03761719 -99.40226562 114.82523438 -98.67578125 115.63671875 C-85.54894325 129.51770184 -66.51576 138.02703079 -47.39208984 138.67407227 C-33.40403146 138.7617567 -21.19319002 135.70132077 -8.8125 129.25 C-11.6748914 127.8188043 -14.06186372 128.30829842 -17.25 128.4375 C-27.2442786 128.48864779 -34.614183 125.83860721 -42.25390625 119.421875 C-43.75392585 118.04967963 -43.75392585 118.04967963 -45.8125 118.25 C-46.2146875 117.40888672 -46.2146875 117.40888672 -46.625 116.55078125 C-48.33734482 113.23311316 -50.37251089 110.12938288 -52.375 106.98046875 C-57.01806526 98.16116817 -57.5554186 86.83288877 -54.796875 77.2734375 C-52.92551981 71.91865607 -50.84910655 67.04979744 -47.8125 62.25 C-66.50356698 49.05417902 -88.73671824 47.90878745 -104.125 67.125 Z " fill="#000000" transform="translate(126.8125,18.75)"/>
</svg>
